<svg xmlns="http://www.w3.org/2000/svg" viewBox="0 0 24 24" fill="currentColor" stroke="currentColor" stroke-width="2" stroke-linecap="round" stroke-linejoin="round"><path fill-rule="evenodd" d="M9.17 6.01Q10.13 5.46 10.27 4.37L10.29 4.23Q10.44 3.14 11.54 3.14L12.46 3.14Q13.56 3.14 13.71 4.23L13.73 4.37Q13.87 5.46 14.83 6.01L15.77 6.56Q16.72 7.11 17.74 6.69L17.88 6.63Q18.89 6.21 19.44 7.17L19.91 7.97Q20.46 8.92 19.59 9.59L19.47 9.68Q18.6 10.35 18.6 11.45L18.6 12.55Q18.6 13.65 19.47 14.32L19.59 14.41Q20.46 15.08 19.91 16.03L19.44 16.83Q18.89 17.79 17.88 17.37L17.74 17.31Q16.72 16.89 15.77 17.44L14.83 17.99Q13.87 18.54 13.73 19.63L13.71 19.77Q13.56 20.86 12.46 20.86L11.54 20.86Q10.44 20.86 10.29 19.77L10.27 19.63Q10.13 18.54 9.17 17.99L8.23 17.44Q7.28 16.89 6.26 17.31L6.12 17.37Q5.11 17.79 4.56 16.83L4.09 16.03Q3.54 15.08 4.41 14.41L4.53 14.32Q5.4 13.65 5.4 12.55L5.4 11.45Q5.4 10.35 4.53 9.68L4.41 9.59Q3.54 8.92 4.09 7.97L4.56 7.17Q5.11 6.21 6.12 6.63L6.26 6.69Q7.28 7.11 8.23 6.56ZM8 12a4 4 0 1 0 8 0a4 4 0 1 0-8 0z"/></svg>
